<svg width="20" height="20" viewBox="0 0 20 20" fill="none" xmlns="http://www.w3.org/2000/svg">
<g clip-path="url(#clip0_649_431)">
<rect width="20" height="20" rx="5" fill="#C59651"/>
<path d="M5.8 12.25C5.8 12.6642 6.13579 13 6.55 13H10.65C11.0642 13 11.4 12.6642 11.4 12.25V12.25C11.4 11.8358 11.0642 11.5 10.65 11.5H6.55C6.13579 11.5 5.8 11.8358 5.8 12.25V12.25ZM5.8 10C5.8 10.4142 6.13579 10.75 6.55 10.75H13.45C13.8642 10.75 14.2 10.4142 14.2 10V10C14.2 9.58579 13.8642 9.25 13.45 9.25H6.55C6.13579 9.25 5.8 9.58579 5.8 10V10ZM5.8 7.75C5.8 8.16421 6.13579 8.5 6.55 8.5H13.45C13.8642 8.5 14.2 8.16421 14.2 7.75V7.75C14.2 7.33579 13.8642 7 13.45 7H6.55C6.13579 7 5.8 7.33579 5.8 7.75V7.75ZM4.73105 17.1453C4.11177 17.8088 3 17.3706 3 16.463V5.5C3 5.0875 3.1372 4.7345 3.4116 4.441C3.686 4.1475 4.01547 4.0005 4.4 4H15.6C15.985 4 16.3147 4.147 16.5891 4.441C16.8635 4.735 17.0005 5.088 17 5.5V14.5C17 14.9125 16.863 15.2657 16.5891 15.5597C16.3152 15.8537 15.9855 16.0005 15.6 16H6.23455C5.95737 16 5.69262 16.115 5.5035 16.3177L4.73105 17.1453ZM5.08719 14.6235C5.16243 14.5446 5.26667 14.5 5.37567 14.5H14.6C15.1523 14.5 15.6 14.0523 15.6 13.5V6.5C15.6 5.94772 15.1523 5.5 14.6 5.5H4.4V14.3483C4.4 14.708 4.83886 14.8838 5.08719 14.6235V14.6235Z" fill="white"/>
</g>
<defs>
<clipPath id="clip0_649_431">
<rect width="20" height="20" fill="white"/>
</clipPath>
</defs>
</svg>
